<svg width="298" height="157" viewBox="0 0 298 157" fill="none" xmlns="http://www.w3.org/2000/svg">
<path d="M121.167 70.4348C121.167 68.1455 122.043 65.8539 123.79 64.1071L164.807 23.0883C195.229 -7.33022 244.727 -7.33022 275.147 23.0883C289.885 37.8238 298 57.417 298 78.2573C298 99.0976 289.885 118.689 275.147 133.424C260.411 148.162 240.819 156.274 219.978 156.274C199.137 156.274 179.546 148.162 164.807 133.424C161.314 129.928 161.314 124.264 164.807 120.771C168.303 117.275 173.967 117.275 177.463 120.771C188.82 132.127 203.919 138.381 219.978 138.381C236.038 138.381 251.136 132.127 262.493 120.771C273.85 109.414 280.104 94.3163 280.104 78.2573C280.104 62.196 273.85 47.0981 262.493 35.7415C239.05 12.3013 200.906 12.3013 177.463 35.7415L136.443 76.7625C132.949 80.2584 127.283 80.2584 123.79 76.7625C122.043 75.0157 121.167 72.7264 121.167 70.4348" fill="#00DAC8"/>
<path d="M184.398 104.89C184.398 102.6 185.271 100.309 187.018 98.5618C190.514 95.0682 196.178 95.0682 199.674 98.5618C210.871 109.759 229.087 109.759 240.286 98.5618C245.709 93.139 248.694 85.9266 248.694 78.2572C248.694 70.5879 245.709 63.3755 240.284 57.9505C234.861 52.5277 227.649 49.5405 219.979 49.5405C212.309 49.5405 205.097 52.5277 199.674 57.9505C196.18 61.4464 190.514 61.4464 187.018 57.9505C183.524 54.4568 183.524 48.7931 187.018 45.2972C195.822 36.4934 207.528 31.6446 219.979 31.6446C232.43 31.6446 244.136 36.4934 252.938 45.2972C261.744 54.1034 266.591 65.8066 266.591 78.2572C266.591 90.7079 261.744 102.411 252.938 111.217C234.764 129.39 205.193 129.39 187.018 111.217C185.271 109.468 184.398 107.181 184.398 104.89M0.000709504 78.2572C0.000709504 57.417 8.11829 37.8238 22.8542 23.0883C53.2737 -7.33022 102.772 -7.33022 133.191 23.0883C136.687 26.5842 136.687 32.2501 133.193 35.7415C129.7 39.2374 124.031 39.2374 120.538 35.7415C97.0965 12.3013 58.9511 12.3013 35.5078 35.7415C24.1508 47.0981 17.8972 62.196 17.8972 78.2572C17.8972 94.3163 24.1508 109.414 35.5078 120.771C46.8647 132.127 61.9631 138.381 78.0227 138.381C94.0822 138.381 109.181 132.127 120.538 120.771L161.558 79.752C165.051 76.2561 170.717 76.2561 174.213 79.752C177.707 83.2478 177.707 88.9093 174.213 92.4051L133.193 133.424C102.772 163.845 53.2737 163.845 22.8542 133.424C8.11829 118.689 0.000709504 99.0975 0.000709504 78.2572" fill="#2259C9"/>
<path d="M31.4063 78.2572C31.4063 65.8066 36.2553 54.1033 45.0595 45.2972C53.8636 36.4933 65.5695 31.6446 78.0205 31.6446C90.4715 31.6446 102.177 36.4933 110.982 45.2972C114.475 48.7954 114.475 54.459 110.979 57.9504C107.486 61.4463 101.819 61.4463 98.3257 57.9504C92.9027 52.5276 85.6901 49.5405 78.0205 49.5405C70.3509 49.5405 63.1383 52.5276 57.7153 57.9504C52.2901 63.3755 49.3051 70.5879 49.3051 78.2572C49.3051 85.9266 52.2901 93.139 57.7153 98.5618C68.9124 109.759 87.1286 109.759 98.3279 98.5618C101.822 95.0681 107.486 95.0681 110.982 98.5618C114.475 102.058 114.475 107.721 110.979 111.217C92.8059 129.39 63.2328 129.39 45.0595 111.217C36.2553 102.411 31.4063 90.7078 31.4063 78.2572Z" fill="#28AAD6"/>
<path d="M219.978 0.27607C239.957 0.27607 259.938 7.88016 275.147 23.0883C289.88 37.8192 297.995 57.4057 298 78.2392C297.995 99.0705 289.88 118.655 275.147 133.386C260.411 148.121 240.819 156.238 219.978 156.238C199.137 156.238 179.546 148.121 164.807 133.386C163.128 131.706 162.261 129.523 162.198 127.324C168.18 127.871 173.884 130.149 178.737 133.771C190.934 142.869 205.458 147.421 219.978 147.421C237.656 147.421 255.332 140.679 268.821 127.191C282.328 113.684 289.07 95.9798 289.052 78.2775C289.063 60.4243 282.195 42.5712 268.449 29.0289C255.105 15.8804 237.717 9.39063 220.284 9.39063C202.271 9.39063 184.208 16.3239 170.523 30.0081L139.64 60.8903C134.622 65.9102 128.13 69.1112 121.183 70.0926C121.201 69.5681 121.264 69.0437 121.372 68.5282C121.735 66.8525 122.575 65.3173 123.79 64.1071L164.807 23.0883C180.018 7.88016 199.999 0.27607 219.978 0.27607" fill="url(#paint0_linear_119_7301)"/>
<path d="M220.283 9.50315C237.714 9.50315 255.106 15.9952 268.448 29.1414C282.165 42.6545 289.031 60.4648 289.051 78.2774C289.04 95.9415 282.295 113.603 268.82 127.078C255.331 140.564 237.653 147.308 219.977 147.308C205.455 147.308 190.935 142.759 178.736 133.658C173.883 130.036 168.179 127.758 162.195 127.211C162.195 127.249 162.195 127.285 162.197 127.323H162.195C162.155 124.982 163.021 122.63 164.806 120.845C166.553 119.096 168.845 118.222 171.134 118.222C173.424 118.222 175.715 119.096 177.462 120.845C188.819 132.202 203.918 138.455 219.977 138.455C236.037 138.455 251.135 132.202 262.492 120.845C273.849 109.488 280.103 94.3905 280.103 78.3315V78.2572C280.103 62.1959 273.849 47.0981 262.492 35.7415C250.77 24.0225 235.375 18.1607 219.977 18.1607C204.579 18.1607 189.184 24.0225 177.462 35.7415L136.442 76.7625C135.613 77.5947 134.627 78.2548 133.541 78.7049C132.455 79.1549 131.292 79.3861 130.116 79.385C127.825 79.385 125.535 78.5093 123.789 76.7625C122.057 75.0314 121.184 72.7714 121.168 70.5046L121.182 70.2052C128.129 69.2237 134.621 66.0227 139.639 61.0028L170.522 30.1206C184.209 16.4342 202.267 9.50315 220.283 9.50315" fill="url(#paint1_linear_119_7301)"/>
<path d="M219.978 40.6871H220.018C230.349 40.6983 240.681 44.9349 248.193 53.3966L248.434 53.6712C254.548 60.69 257.605 69.5209 257.605 78.3495C257.605 87.1782 254.548 96.0091 248.434 103.028C248.396 103.071 248.36 103.113 248.322 103.156C240.801 111.717 230.41 116.001 220.018 116.014H219.962C212.959 116.01 205.958 114.067 199.832 110.184C199.803 110.164 199.774 110.146 199.745 110.128C199.704 110.101 199.664 110.076 199.621 110.049C199.612 110.042 199.601 110.035 199.592 110.029C199.549 110.002 199.508 109.975 199.466 109.948C194.963 107.017 189.747 105.401 184.401 105.054L184.396 104.973V104.928C184.405 102.65 185.279 100.374 187.017 98.6361C188.764 96.8893 191.055 96.0158 193.345 96.0158C195.634 96.0158 197.923 96.8893 199.673 98.6361C205.271 104.234 212.623 107.033 219.978 107.033C227.332 107.033 234.684 104.234 240.285 98.6361C245.708 93.2133 248.693 86.0009 248.693 78.3315V78.2572C248.693 70.5879 245.708 63.3755 240.283 57.9505C234.86 52.5277 227.647 49.5405 219.978 49.5405C212.308 49.5405 205.096 52.5277 199.673 57.9505C197.926 59.6995 195.634 60.573 193.345 60.573C191.055 60.573 188.764 59.6995 187.017 57.9505C185.405 56.3429 184.469 54.1796 184.401 51.9041C184.399 51.8186 184.399 51.7308 184.399 51.6452C189.747 51.2963 194.963 49.6801 199.466 46.7515C205.676 42.7108 212.819 40.6893 219.96 40.6871H219.978" fill="url(#paint2_linear_119_7301)"/>
<path d="M219.978 31.7188C232.429 31.7188 244.135 36.5676 252.937 45.3737C261.734 54.1686 266.581 65.8561 266.59 78.2932C266.581 90.7325 261.734 102.42 252.937 111.217C243.851 120.302 231.913 124.847 219.978 124.847C208.04 124.847 196.105 120.302 187.017 111.217C185.458 109.662 184.53 107.585 184.41 105.387C184.406 105.277 184.401 105.164 184.401 105.054C189.748 105.4 194.963 107.017 199.466 109.948C199.508 109.975 199.549 110.002 199.592 110.029C199.601 110.035 199.612 110.042 199.621 110.049C199.664 110.076 199.704 110.101 199.745 110.128C199.774 110.146 199.803 110.164 199.833 110.184C205.958 114.067 212.959 116.01 219.962 116.014H220.018C230.412 116.003 240.799 111.717 248.322 103.156C248.36 103.113 248.396 103.071 248.434 103.028C254.549 96.009 257.606 87.1781 257.606 78.3495C257.606 69.5208 254.549 60.6899 248.434 53.6711L248.194 53.3965C240.682 44.9348 230.351 40.6983 220.018 40.687H219.96C212.817 40.6893 205.679 42.7107 199.466 46.7514C194.963 49.68 189.748 51.2963 184.399 51.6452C184.412 49.3716 185.284 47.1048 187.017 45.3737C195.821 36.5676 207.527 31.7188 219.978 31.7188" fill="url(#paint3_linear_119_7301)"/>
<path d="M78.0218 9.27813H78.0398C92.42 9.28263 106.8 13.7487 118.923 22.6787C118.954 22.7012 118.986 22.7237 119.017 22.7485C119.098 22.807 119.179 22.8677 119.26 22.9285C124.116 26.5505 129.82 28.8285 135.804 29.3756C135.808 29.5872 135.804 29.7988 135.79 30.0104C135.653 32.0993 134.786 34.1478 133.19 35.7416C131.443 37.4906 129.152 38.364 126.862 38.364C124.573 38.364 122.281 37.4906 120.534 35.7416C108.813 24.0225 93.4172 18.1608 78.0195 18.1608C62.624 18.1608 47.2263 24.0225 35.5046 35.7416C24.1477 47.0981 17.8941 62.196 17.8941 78.2573V78.3316C17.8941 94.3906 24.1477 109.488 35.5046 120.845C46.8616 132.202 61.96 138.455 78.0195 138.455C94.0791 138.455 109.177 132.202 120.534 120.845L161.554 79.8263C163.301 78.0794 165.591 77.206 167.882 77.206C170.172 77.206 172.461 78.0794 174.21 79.8263C176.043 81.6609 176.905 84.0943 176.813 86.4961C169.866 87.4754 163.376 90.6764 158.358 95.6962L127.475 126.578C127.418 126.635 127.364 126.689 127.308 126.743C127.162 126.891 127.011 127.038 126.862 127.184L126.671 127.369C126.669 127.371 126.671 127.371 126.669 127.373C113.09 140.524 95.3892 147.191 77.7336 147.196H77.7133C60.5012 147.196 43.3251 140.864 30.0502 128.048C29.9444 127.947 29.8408 127.846 29.7373 127.742C29.6742 127.681 29.6112 127.621 29.5482 127.558C15.823 114.036 8.95482 96.2095 8.94581 78.3834C8.93681 60.6945 15.6812 43.0057 29.1767 29.5106C42.6588 16.0291 60.3279 9.28488 77.9992 9.27813H78.0218" fill="url(#paint4_linear_119_7301)"/>
<path d="M78.0233 0.348091C98.0021 0.348091 117.983 7.95441 133.192 23.1626C134.912 24.8824 135.781 27.1244 135.808 29.3755C129.824 28.8285 124.12 26.5504 119.264 22.9284C119.183 22.8677 119.102 22.8069 119.021 22.7484C118.989 22.7236 118.958 22.7011 118.926 22.6786C106.802 13.7486 92.426 9.28255 78.0436 9.27805H78.003C60.3316 9.28255 42.6648 16.0267 29.1805 29.5106C15.685 43.0056 8.94057 60.6945 8.94957 78.3833C8.95858 96.2094 15.8268 114.036 29.5519 127.558C29.615 127.621 29.678 127.681 29.741 127.742C29.8446 127.846 29.9481 127.947 30.0539 128.048C43.3311 140.866 60.5027 147.198 77.7171 147.196H77.7374C95.3952 147.191 113.091 140.526 126.672 127.373C126.675 127.371 126.672 127.371 126.675 127.369L126.866 127.184C127.015 127.038 127.165 126.891 127.312 126.743C127.368 126.689 127.422 126.635 127.478 126.578L158.362 95.6961C163.379 90.6763 169.869 87.4753 176.816 86.4961C176.807 86.7684 176.783 87.0431 176.749 87.3132C176.483 89.2418 175.593 91.0303 174.214 92.4051L133.194 133.424C117.983 148.634 98.0043 156.238 78.0233 156.238C58.0445 156.238 38.0634 148.634 22.8548 133.424C8.12791 118.697 0.0125852 99.12 0.00132953 78.2932C0.0125852 57.4687 8.12791 37.889 22.8548 23.1626C38.0634 7.95441 58.0445 0.348091 78.0233 0.348091" fill="url(#paint5_linear_119_7301)"/>
<path d="M78.0215 40.6871H78.0372C85.009 40.6893 91.9807 42.614 98.088 46.4656C98.0948 46.4701 98.1038 46.4745 98.1105 46.479C98.2524 46.5691 98.392 46.6592 98.5338 46.7514C103.036 49.6801 108.252 51.2963 113.601 51.6452C113.601 51.7375 113.598 51.8321 113.596 51.9266C113.524 54.1147 112.653 56.2802 110.98 57.9505C109.233 59.6995 106.944 60.5729 104.655 60.5729C102.363 60.5729 100.074 59.6995 98.3266 57.9505C92.9037 52.5277 85.6911 49.5405 78.0215 49.5405C70.3519 49.5405 63.1392 52.5277 57.7163 57.9505C52.291 63.3755 49.306 70.5879 49.306 78.2572V78.3315C49.306 86.0009 52.291 93.2133 57.7163 98.6361C63.3148 104.234 70.667 107.032 78.0215 107.032C85.3759 107.032 92.7281 104.234 98.3289 98.6361C100.076 96.8892 102.365 96.0158 104.655 96.0158C106.944 96.0158 109.236 96.8892 110.982 98.6361C112.752 100.408 113.623 102.735 113.598 105.056C108.252 105.401 103.036 107.017 98.5338 109.948C98.491 109.975 98.4505 110.002 98.4077 110.029L98.3649 110.058C98.3334 110.078 98.3019 110.098 98.2704 110.116L98.0273 110.272C91.9357 114.096 84.9842 116.01 78.035 116.014H78.0012C67.601 116.007 57.203 111.721 49.6775 103.156C49.6392 103.113 49.6032 103.071 49.5649 103.028C43.4509 96.0091 40.3938 87.1782 40.3938 78.3495C40.3938 69.5209 43.4509 60.69 49.5649 53.6712L49.8058 53.3966C57.3223 44.9303 67.6617 40.6916 78.0012 40.6871H78.0215" fill="url(#paint6_linear_119_7301)"/>
<path d="M78.0215 31.7188C90.4725 31.7188 102.178 36.5676 110.982 45.3738C112.716 47.1071 113.585 49.3739 113.601 51.6452C108.252 51.2963 103.036 49.68 98.5338 46.7514C98.392 46.6591 98.2524 46.5691 98.1105 46.479C98.1038 46.4745 98.0948 46.47 98.088 46.4655C91.9807 42.614 85.0112 40.687 78.0372 40.687H78.0012C67.6617 40.6915 57.3223 44.9281 49.8058 53.3965L49.5649 53.6712C43.4509 60.69 40.3938 69.5209 40.3938 78.3495C40.3938 87.1782 43.4509 96.0091 49.5649 103.028C49.6032 103.071 49.6392 103.113 49.6775 103.156C57.2053 111.724 67.601 116.01 78.0012 116.014H78.035C84.9865 116.012 91.9335 114.096 98.0273 110.272L98.2704 110.116C98.3019 110.098 98.3334 110.078 98.3649 110.058L98.4077 110.029C98.4505 110.002 98.491 109.975 98.5338 109.948C103.036 107.017 108.252 105.4 113.598 105.056C113.596 105.166 113.594 105.279 113.587 105.389C113.47 107.51 112.601 109.596 110.98 111.217C101.895 120.302 89.9569 124.847 78.0215 124.847C66.0837 124.847 54.1482 120.302 45.0604 111.217C36.2653 102.42 31.4185 90.7326 31.4073 78.2932C31.4185 65.8561 36.2653 54.1686 45.0604 45.3738C53.8646 36.5676 65.5705 31.7188 78.0215 31.7188" fill="url(#paint7_linear_119_7301)"/>
<defs>
<linearGradient id="paint0_linear_119_7301" x1="298" y1="78.237" x2="121.183" y2="78.237" gradientUnits="userSpaceOnUse">
<stop stop-color="#00DAC8"/>
<stop offset="1" stop-color="#00B4A5"/>
</linearGradient>
<linearGradient id="paint1_linear_119_7301" x1="103.06" y1="78.462" x2="279.321" y2="78.462" gradientUnits="userSpaceOnUse">
<stop stop-color="#00DAC8"/>
<stop offset="1" stop-color="#00B4A5"/>
</linearGradient>
<linearGradient id="paint2_linear_119_7301" x1="133.086" y1="78.3495" x2="240.935" y2="78.3495" gradientUnits="userSpaceOnUse">
<stop stop-color="#2259C9"/>
<stop offset="1" stop-color="#1C4AA6"/>
</linearGradient>
<linearGradient id="paint3_linear_119_7301" x1="266.59" y1="78.3202" x2="184.398" y2="78.3202" gradientUnits="userSpaceOnUse">
<stop stop-color="#2259C9"/>
<stop offset="1" stop-color="#1C4AA6"/>
</linearGradient>
<linearGradient id="paint4_linear_119_7301" x1="-39.9735" y1="78.237" x2="137.431" y2="78.237" gradientUnits="userSpaceOnUse">
<stop stop-color="#2259C9"/>
<stop offset="1" stop-color="#1C4AA6"/>
</linearGradient>
<linearGradient id="paint5_linear_119_7301" x1="176.816" y1="78.3315" x2="0.000653016" y2="78.3315" gradientUnits="userSpaceOnUse">
<stop stop-color="#2259C9"/>
<stop offset="1" stop-color="#1C4AA6"/>
</linearGradient>
<linearGradient id="paint6_linear_119_7301" x1="139.759" y1="78.3495" x2="37.0322" y2="78.3495" gradientUnits="userSpaceOnUse">
<stop stop-color="#28AAD6"/>
<stop offset="1" stop-color="#218DB1"/>
</linearGradient>
<linearGradient id="paint7_linear_119_7301" x1="113.601" y1="78.3202" x2="31.4095" y2="78.3202" gradientUnits="userSpaceOnUse">
<stop stop-color="#28AAD6"/>
<stop offset="1" stop-color="#218DB1"/>
</linearGradient>
</defs>
</svg>
