<svg width="260" height="93" viewBox="0 0 260 93" fill="none" xmlns="http://www.w3.org/2000/svg">
<path d="M238.967 67.2823H163.71C150.135 67.2823 139.131 56.2773 139.131 42.703V26.578C139.131 13.0037 150.135 1.99998 163.71 1.99998H242.9C251.901 1.99998 259.199 9.29579 259.199 18.2969H163.71C159.136 18.2969 155.429 22.0061 155.429 26.578V42.703C155.429 47.2762 159.136 50.9828 163.71 50.9828H238.967V67.2823" fill="#28AAD6"/>
<path d="M234.84 91.3777H155.298C146.297 91.3777 139 84.0793 139 75.0782H234.84C239.413 75.0782 243.12 71.3716 243.12 66.797V50.6734C243.12 46.1002 239.413 42.3936 234.84 42.3936H159.581V26.094H234.84C248.415 26.094 259.42 37.0991 259.42 50.6734V66.797C259.42 80.3727 248.415 91.3777 234.84 91.3777" fill="#2259C9"/>
<path d="M238.967 59.1319H163.774C154.701 59.1319 147.345 51.7774 147.345 42.703V26.578C147.345 17.5049 154.701 10.1491 163.774 10.1491H233.306C237.046 10.1491 240.751 10.8664 244.22 12.2637L259.198 18.2969H163.71C159.136 18.2969 155.429 22.0062 155.429 26.578V42.703C155.429 47.2762 159.136 50.9828 163.71 50.9828H238.967V59.1319" fill="url(#paint0_linear_119_7304)"/>
<path d="M234.904 83.2673H167.033C163.05 83.2673 159.098 82.5593 155.365 81.1753L139 75.1168H234.84C239.413 75.1168 243.12 71.4102 243.12 66.837V50.6734C243.12 46.1002 239.413 42.3936 234.84 42.3936H159.581V34.2832H234.904C243.979 34.2832 251.335 41.639 251.335 50.7134V66.837C251.335 75.9101 243.979 83.2673 234.904 83.2673" fill="url(#paint1_linear_119_7304)"/>
<path d="M37.9736 10.2771H49.84L69.84 44.9176L75.7754 55.2013L85.4418 71.9449L121.049 10.2771H101.712L107.647 -8.45265e-06H138.851L85.4418 92.5004L69.84 65.4797L63.9049 55.196L37.9736 10.2771" fill="#2259C9"/>
<path d="M0.834961 -8.45265e-06H107.647L101.712 10.2771L75.7754 55.2013L69.84 44.9176L89.8403 10.2771H18.6361L54.2384 71.9449L63.9049 55.196L69.84 65.4797L54.2384 92.5004L0.834961 -8.45265e-06" fill="#28AAD6"/>
<path d="M85.4417 92.5004L69.84 65.4797L66.8755 60.3412L63.9048 55.196L48.0667 27.7606L53.3893 26.7033L66.8755 50.0574L69.84 55.2013L72.8103 60.3412L85.4417 82.2219L129.95 5.1372H123.702L127.713 0.00132615H107.646L106.809 1.45064L107.646 -8.45265e-06H138.851L85.4417 92.5004" fill="#2259C9"/>
<path d="M85.4418 82.2219L72.8104 60.3411L69.8401 55.2013L66.8756 50.0574L53.3894 26.7033L58.7133 25.646L49.8401 10.2771H43.9038H49.8401L69.8401 44.9175L75.7754 55.2013L85.4418 71.9449L121.049 10.2771H119.69L123.702 5.13719H129.95L85.4418 82.2219M101.712 10.2771L102.551 8.8251L101.712 10.2771Z" fill="url(#paint2_linear_119_7304)"/>
<path d="M69.84 65.4797L66.8745 60.3425L66.8756 60.3412L69.84 65.4797M101.712 10.2771L107.647 2.45136e-05L106.809 1.45067L102.551 8.82515L101.712 10.2771Z" fill="#2259C9"/>
<path d="M54.2384 92.5004L0.834961 -8.45265e-06H107.647L101.712 10.2771L82.1032 44.2402L78.606 40.023L95.7815 10.2771L98.7468 5.1372H9.73527L54.2384 82.2219L59.9664 72.3035L62.8387 77.6047L69.84 65.4797L54.2384 92.5004" fill="#28AAD6"/>
<path d="M66.8744 60.3425L63.9048 55.196L66.8755 60.3412L66.8744 60.3425" fill="url(#paint3_linear_119_7304)"/>
<path d="M54.2385 82.2219L9.73535 5.13719H98.7469L95.7816 10.2771L78.606 40.023L75.1457 35.8498L69.8401 44.9175L89.8404 10.2771H18.6362L54.2385 71.9449L57.0926 66.9996L59.9665 72.3035L54.2385 82.2219M66.8746 60.3425L63.9049 55.1959L66.8746 60.3425Z" fill="url(#paint4_linear_119_7304)"/>
<path d="M123.702 5.13721H104.683L106.809 1.45065L107.647 0.00133273H127.713L123.702 5.13721Z" fill="url(#paint5_linear_119_7304)"/>
<path d="M102.551 8.82513L106.809 1.45066L104.683 5.13722L102.551 8.82513" fill="url(#paint6_linear_119_7304)"/>
<path d="M75.7753 55.2013L72.8103 50.0628L78.6059 40.023L82.1031 44.2402L75.7753 55.2013" fill="url(#paint7_linear_119_7304)"/>
<path d="M62.8386 77.6047L59.9663 72.3035L66.8744 60.3425L69.8399 65.4797L62.8386 77.6047Z" fill="url(#paint8_linear_119_7304)"/>
<path d="M48.0667 27.7606L37.9736 10.2771H43.9037L53.3894 26.7033L48.0662 27.7606" fill="url(#paint9_linear_119_7304)"/>
<defs>
<linearGradient id="paint0_linear_119_7304" x1="263.976" y1="71.7953" x2="169.697" y2="14.8283" gradientUnits="userSpaceOnUse">
<stop stop-color="#28AAD6"/>
<stop offset="1" stop-color="#1A6F8C"/>
</linearGradient>
<linearGradient id="paint1_linear_119_7304" x1="139" y1="58.7745" x2="251.335" y2="58.7745" gradientUnits="userSpaceOnUse">
<stop stop-color="#2259C9"/>
<stop offset="1" stop-color="#163A83"/>
</linearGradient>
<linearGradient id="paint2_linear_119_7304" x1="129.95" y1="43.6802" x2="43.9042" y2="43.6802" gradientUnits="userSpaceOnUse">
<stop stop-color="#133CB3"/>
<stop offset="1" stop-color="#112E6E"/>
</linearGradient>
<linearGradient id="paint3_linear_119_7304" x1="-2.24758" y1="43.6803" x2="103.521" y2="43.6803" gradientUnits="userSpaceOnUse">
<stop stop-color="#133CB3"/>
<stop offset="1" stop-color="#112E6E"/>
</linearGradient>
<linearGradient id="paint4_linear_119_7304" x1="-2.24742" y1="43.6802" x2="103.521" y2="43.6802" gradientUnits="userSpaceOnUse">
<stop stop-color="#178DC5"/>
<stop offset="1" stop-color="#145C76"/>
</linearGradient>
<linearGradient id="paint5_linear_119_7304" x1="135.315" y1="5.13987" x2="98.6742" y2="5.13987" gradientUnits="userSpaceOnUse">
<stop stop-color="#2259C9"/>
<stop offset="0.494" stop-color="#2259C9"/>
<stop offset="1" stop-color="#133271"/>
</linearGradient>
<linearGradient id="paint6_linear_119_7304" x1="135.315" y1="5.1399" x2="98.6744" y2="5.1399" gradientUnits="userSpaceOnUse">
<stop stop-color="#2259C9"/>
<stop offset="0.494" stop-color="#2259C9"/>
<stop offset="1" stop-color="#133271"/>
</linearGradient>
<linearGradient id="paint7_linear_119_7304" x1="85.8972" y1="33.4982" x2="70.3306" y2="51.4592" gradientUnits="userSpaceOnUse">
<stop stop-color="#28AAD6"/>
<stop offset="0.494" stop-color="#28AAD6"/>
<stop offset="1" stop-color="#166079"/>
</linearGradient>
<linearGradient id="paint8_linear_119_7304" x1="53.2504" y1="80.1602" x2="70.9721" y2="56.0922" gradientUnits="userSpaceOnUse">
<stop stop-color="#28AAD6"/>
<stop offset="0.494" stop-color="#28AAD6"/>
<stop offset="1" stop-color="#166079"/>
</linearGradient>
<linearGradient id="paint9_linear_119_7304" x1="56.2898" y1="36.6277" x2="43.9408" y2="7.60708" gradientUnits="userSpaceOnUse">
<stop stop-color="#2259C9"/>
<stop offset="0.494" stop-color="#2259C9"/>
<stop offset="1" stop-color="#194294"/>
</linearGradient>
</defs>
</svg>
