<svg width="256" height="256" viewBox="0 0 256 256" fill="none" xmlns="http://www.w3.org/2000/svg">
<g clip-path="url(#clip0_120_5)">
<path d="M5.46311 126.468C5.45711 147.977 11.1211 168.979 21.8911 187.49L4.43311 250.738L69.6651 233.767C87.7074 243.513 107.923 248.619 128.465 248.621H128.519C196.334 248.621 251.537 193.865 251.566 126.564C251.579 93.952 238.791 63.2856 215.557 40.2138C192.327 17.1441 161.432 4.43236 128.514 4.41748C60.6911 4.41748 5.49211 59.1697 5.46411 126.468" fill="url(#paint0_linear_120_5)"/>
<path d="M1.07 126.428C1.063 148.711 6.93 170.464 18.084 189.638L0 255.154L67.571 237.574C86.189 247.646 107.151 252.957 128.481 252.965H128.536C198.784 252.965 255.97 196.24 256 126.529C256.012 92.7454 242.764 60.9766 218.7 37.0783C194.633 13.183 162.633 0.0138915 128.536 0C58.276 0 1.099 56.7169 1.071 126.428H1.07ZM41.31 186.336L38.787 182.362C28.181 165.629 22.583 146.292 22.591 126.436C22.614 68.4939 70.138 21.3532 128.576 21.3532C156.876 21.3651 183.472 32.3116 203.476 52.1724C223.479 72.0352 234.486 98.4389 234.479 126.522C234.453 184.464 186.928 231.611 128.536 231.611H128.494C109.481 231.601 90.834 226.534 74.572 216.96L70.702 214.683L30.604 225.114L41.31 186.335V186.336Z" fill="url(#paint1_linear_120_5)"/>
<path d="M96.6781 73.5732C94.2921 68.3113 91.7811 68.2051 89.5121 68.1129C87.6541 68.0335 85.5301 68.0394 83.4081 68.0394C81.2841 68.0394 77.8331 68.8322 74.9161 71.9926C71.9961 75.1558 63.7681 82.8001 63.7681 98.3477C63.7681 113.896 75.1811 128.922 76.7721 131.032C78.3651 133.139 98.8051 166.066 131.177 178.733C158.081 189.259 163.556 187.166 169.395 186.638C175.235 186.112 188.239 178.996 190.892 171.616C193.547 164.238 193.547 157.913 192.751 156.592C191.955 155.275 189.831 154.484 186.646 152.904C183.46 151.324 167.802 143.679 164.883 142.624C161.963 141.57 159.84 141.044 157.716 144.208C155.592 147.368 149.493 154.484 147.634 156.592C145.777 158.704 143.918 158.967 140.734 157.386C137.547 155.801 127.29 152.468 115.121 141.703C105.653 133.326 99.2611 122.982 97.4031 119.818C95.5451 116.659 97.2041 114.946 98.8011 113.371C100.232 111.955 101.987 109.681 103.581 107.837C105.169 105.991 105.699 104.674 106.761 102.567C107.824 100.457 107.292 98.6116 106.497 97.0309C105.699 95.4503 99.5101 79.8224 96.6781 73.5742" fill="white"/>
</g>
<defs>
<linearGradient id="paint0_linear_120_5" x1="128" y1="250.738" x2="128" y2="4.41748" gradientUnits="userSpaceOnUse">
<stop stop-color="#1FAF38"/>
<stop offset="1" stop-color="#60D669"/>
</linearGradient>
<linearGradient id="paint1_linear_120_5" x1="128" y1="255.154" x2="128" y2="0" gradientUnits="userSpaceOnUse">
<stop stop-color="#F9F9F9"/>
<stop offset="1" stop-color="white"/>
</linearGradient>
<clipPath id="clip0_120_5">
<rect width="256" height="256" fill="white"/>
</clipPath>
</defs>
</svg>
