<svg width="256" height="256" viewBox="0 0 256 256" fill="none" xmlns="http://www.w3.org/2000/svg">
<path d="M250.35 66.187C248.882 60.7389 246.018 55.772 242.043 51.781C238.068 47.79 233.121 44.9141 227.694 43.4396C207.828 38 127.872 38 127.872 38C127.872 38 47.913 38.1647 28.0467 43.6043C22.6201 45.0788 17.6729 47.9549 13.6979 51.9461C9.7228 55.9373 6.85853 60.9044 5.39028 66.3526C-0.618818 101.791 -2.94986 155.792 5.55529 189.813C7.02368 195.261 9.88802 200.228 13.8631 204.219C17.8381 208.21 22.7852 211.086 28.2117 212.56C48.078 218 128.035 218 128.035 218C128.035 218 207.992 218 227.857 212.56C233.284 211.086 238.231 208.21 242.206 204.219C246.181 200.228 249.046 195.261 250.514 189.813C256.853 154.324 258.806 100.358 250.35 66.188V66.187Z" fill="#FF0000"/>
<path d="M102.421 166.06L168.749 127.642L102.421 89.224V166.06Z" fill="white"/>
</svg>
